<svg width="49" height="49" viewBox="0 0 49 49" fill="none" xmlns="http://www.w3.org/2000/svg">
<g id="add-image_13727355 1" clip-path="url(#clip0_223_639)">
<path id="Vector" d="M28.5 10.5C30.71 10.5 32.5 12.29 32.5 14.5C32.5 16.71 30.71 18.5 28.5 18.5C26.29 18.5 24.5 16.71 24.5 14.5C24.5 12.29 26.29 10.5 28.5 10.5ZM48.5 36.5H42.5V30.5H36.5V36.5H30.5V42.5H36.5V48.5H42.5V42.5H48.5V36.5ZM32.5 30.5L20.328 18.328C18.766 16.766 16.234 16.766 14.672 18.328L6.5 26.5V7.5C6.5 6.95 6.948 6.5 7.5 6.5H35.5C36.052 6.5 36.5 6.95 36.5 7.5V26.5H42.5V7.5C42.5 3.64 39.36 0.5 35.5 0.5H7.5C3.64 0.5 0.5 3.64 0.5 7.5V42.5H26.5V32.5H32.5V30.5Z" fill="#969696"/>
</g>
<defs>
<clipPath id="clip0_223_639">
<rect width="48" height="48" fill="white" transform="translate(0.5 0.5)"/>
</clipPath>
</defs>
</svg>
